<svg xmlns="http://www.w3.org/2000/svg" viewBox="0 0 114 111">
  <path fill="black"
        d="M 31.75,52.77
           C 31.75,52.77 41.62,28.39 63.50,28.77
             76.12,31.02 79.12,37.02 79.12,37.02
             79.12,37.02 92.38,33.65 92.38,33.65
             92.38,33.65 87.25,46.15 87.25,46.15
             87.25,46.15 93.88,54.39 92.88,66.39
             94.38,85.02 71.00,108.27 48.25,108.77
             82.38,109.27 108.50,91.89 110.75,53.77
             109.50,26.52 86.25,12.89 71.00,13.39
             42.12,15.02 31.50,37.02 31.75,52.77 Z
           M 97.25,17.77
           C 97.25,17.77 82.50,1.15 56.82,1.00
             34.82,1.72 8.82,17.00 9.00,41.72
             9.18,66.45 24.45,84.82 42.82,84.09
             61.18,83.36 63.64,68.82 63.64,68.82
             63.64,68.82 57.91,78.36 47.45,78.54
             34.91,78.54 28.75,62.77 29.00,48.77
             29.25,34.77 43.55,8.54 70.82,9.45
             85.00,9.65 97.25,17.77 97.25,17.77 Z
           M 49.12,47.15
           C 49.12,47.15 54.25,44.77 62.50,44.89
             71.50,46.15 81.50,57.65 81.38,75.02
             81.38,92.89 58.62,104.15 45.62,103.89
             32.62,103.65 -0.12,91.89 0.38,54.89
             2.50,40.52 5.12,35.15 4.88,35.39
             4.62,73.52 23.75,85.77 43.50,88.39
             60.38,86.89 65.38,75.89 65.12,66.65
             64.88,57.39 61.62,49.39 49.12,47.15 Z
           M 69.30,44.92
           C 69.30,44.92 70.75,39.02 77.62,39.52
             84.50,40.02 87.22,38.92 87.12,38.89
             86.04,41.01 81.75,49.52 76.88,49.39
             72.38,49.52 72.09,47.36 72.09,47.36
             72.09,47.36 78.43,47.18 80.35,42.79
             76.30,43.88 72.98,45.30 69.30,44.92 Z" />
</svg>
