<svg xmlns="http://www.w3.org/2000/svg"
     width="0.64in" height="0.64in"
     viewBox="0 0 192 192">
  <path fill="currentColor" 
        d="M 55.27,80.73
           C 55.27,80.91 50.00,89.82 50.00,92.18
             50.00,94.55 50.00,140.73 50.00,140.73
             50.00,140.73 55.45,148.00 55.45,148.00
             55.45,148.00 55.27,80.55 55.27,80.73 Z
           M 70.00,54.18
           C 70.00,54.18 64.62,62.12 64.62,62.12
             64.62,62.12 64.00,156.55 64.00,156.55
             64.00,156.55 69.82,161.27 69.82,161.27
             69.82,161.27 70.00,54.18 70.00,54.18 Z
           M 84.73,31.45
           C 84.73,31.45 79.09,39.09 79.09,39.09
             79.09,39.09 79.09,164.55 79.09,164.55
             79.09,164.55 84.73,166.55 84.73,166.55
             84.73,166.55 84.73,31.45 84.73,31.45 Z
           M 97.09,12.91
           C 96.91,13.27 93.82,16.18 93.82,16.18
             93.82,16.18 94.18,167.82 94.18,167.82
             94.18,167.82 99.45,168.00 99.45,168.00
             99.45,168.00 100.00,16.00 100.00,16.00
             100.00,16.00 97.27,12.55 97.09,12.91 Z
           M 108.91,30.36
           C 108.91,30.36 109.09,166.36 109.09,166.36
             109.09,166.36 114.36,164.91 114.36,165.09
             114.36,165.27 114.18,38.36 114.18,38.36
             114.18,38.36 108.91,30.36 108.91,30.36 Z
           M 123.45,55.09
           C 123.45,55.45 123.45,160.18 123.45,160.18
             123.45,160.18 128.73,157.64 128.73,157.64
             128.73,157.64 128.73,63.09 128.73,63.09
             128.73,63.09 123.45,54.73 123.45,55.09 Z
           M 138.18,81.45
           C 138.18,81.45 138.55,148.00 138.55,148.00
             138.55,148.00 143.27,141.27 143.27,141.27
             143.27,141.27 143.82,93.64 143.82,93.64
             143.82,93.64 138.18,81.45 138.18,81.45 Z" />
</svg>
